<svg id="Layer_1" enable-background="new 0 0 468 468" height="512" viewBox="0 0 468 468" width="512" xmlns="http://www.w3.org/2000/svg"><g fill="#4f4f4f"><path d="m430 114.4h-17.865v-21.51c0-4.418-3.582-8-8-8s-8 3.582-8 8v21.51h-43.354l-52.936-59.085c-5.304-5.919-12.905-9.315-20.854-9.315h-89.982c-7.949 0-15.55 3.396-20.854 9.316l-52.936 59.084h-77.219c-20.953 0-38 17.047-38 38v231.6c0 20.953 17.047 38 38 38h392c20.953 0 38-17.047 38-38v-231.6c0-20.953-17.047-38-38-38zm0 291.6h-392c-12.131 0-22-9.869-22-22v-67h53.335c4.418 0 8-3.582 8-8s-3.582-8-8-8h-53.335v-64h82.5c4.418 0 8-3.582 8-8s-3.582-8-8-8h-82.5v-68.6c0-12.131 9.869-22 22-22h80.792c2.274 0 4.441-.968 5.958-2.662l55.32-61.745c2.274-2.538 5.531-3.993 8.938-3.993h89.982c3.407 0 6.665 1.455 8.938 3.992l55.32 61.746c1.518 1.694 3.684 2.662 5.958 2.662h80.794c12.131 0 22 9.869 22 22v68.6h-59.493c-4.418 0-8 3.582-8 8s3.582 8 8 8h59.493v64h-79.336c-4.418 0-8 3.582-8 8s3.582 8 8 8h79.336v67c0 12.131-9.869 22-22 22z"/><path d="m193.949 139.662h80.102c4.418 0 8-3.582 8-8v-40.106c0-4.418-3.582-8-8-8h-80.102c-4.418 0-8 3.582-8 8v40.106c0 4.418 3.581 8 8 8z"/><path d="m234 215.656c-31.451 0-57.038 25.652-57.038 57.183s25.587 57.183 57.038 57.183 57.038-25.652 57.038-57.183-25.587-57.183-57.038-57.183z"/><path d="m234 167.656c-58.011 0-105.038 47.092-105.038 105.183s47.027 105.182 105.038 105.182 105.038-47.092 105.038-105.183-47.027-105.182-105.038-105.182zm0 178.365c-40.273 0-73.038-32.829-73.038-73.183s32.765-73.183 73.038-73.183 73.038 32.829 73.038 73.183-32.765 73.183-73.038 73.183z"/>
<path d="m369.655 229c0-5.514-4.486-10-10-10s-10 4.486-10 10 4.486 10 10 10 10-4.486 10-10z"/><path d="m105.335 299c-5.514 0-10 4.486-10 10s4.486 10 10 10 10-4.486 10-10-4.486-10-10-10z"/></g></svg>