<svg id="Capa_1" enable-background="new 0 0 512.05 512.05" height="512" viewBox="0 0 512.05 512.05" width="512" xmlns="http://www.w3.org/2000/svg"><g><path d="m254.411 282.097c26.976-35.209 91.738-122.82 16.651-273.535-.812-1.63-3.23-1.314-3.584.472l-27.851 140.468c-2.844 20.034-5.681 40.019-8.525 60.052-.01.109-.02.218-.03.327-3.325 35.82-31.69 63.774-67.417 67.981-31.699 3.733-63.621 25.175-81.926 48.691-36.385 46.744-42.23 134.645 17.192 164.951 80.778 41.197 144.593-22.618 155.094-91.279 5.355-35.014.691-59.211-8.841-76.822-5.035-9.302-4.975-20.621.629-29.592.044-.071.089-.142.134-.213 1.823-2.878 4.797-6.703 8.474-11.501m-80.844 33.089c17.32 0 36.151 18.43 41.409 34.094 4.826 14.38 3.58 30.452 1.328 45.178-7.143 46.703-39.917 71.905-67.129 71.906-22.105.001-49.228-11.942-55.141-35.108-12.342-48.349 25.614-116.066 79.533-116.07z" fill="#766d78"/><path d="m245.802 293.812c.044-.071.089-.142.134-.213 1.823-2.879 4.798-6.704 8.474-11.502 26.977-35.209 91.738-122.82 16.651-273.535-.812-1.63-3.23-1.314-3.584.472l-11.972 55.007c44.675 125.004-6.749 186.281-31.095 218.056-3.676 4.798-6.651 8.623-8.474 11.502-.045.071-.09.142-.134.213-5.604 8.971-5.663 20.29-.629 29.592 9.531 17.611 14.195 41.808 8.84 76.822-7.456 48.75-41.793 95.044-89.991 103.055 63.628 10.137 111.066-44.701 119.991-103.055 5.355-35.014.691-59.211-8.84-76.822-5.034-9.302-4.974-20.621.629-29.592z" fill="#655e67"/><path d="m430.349 326.554c-18.305-23.517-50.227-44.958-81.926-48.691-35.728-4.207-64.092-32.161-67.417-67.981-.816-8.787-.541-15.529-.393-17.924-.044-.653-.086-1.29-.13-1.943l-35.884-180.981c-.354-1.786-2.772-2.101-3.584-.472-85.319 171.255 9.924 261.034 25.126 285.037.045.07.089.141.133.211 5.605 8.971 5.664 20.292.629 29.595-9.531 17.61-14.195 41.807-8.84 76.82 10.501 68.661 74.316 132.476 155.094 91.279 59.423-30.305 53.578-118.206 17.192-164.95zm-12.304 104.703c-5.913 23.167-33.036 35.109-55.141 35.108-27.213-.001-59.987-25.203-67.129-71.906-2.252-14.727-3.499-30.799 1.328-45.178 5.258-15.664 24.089-34.094 41.409-34.094 53.918.003 91.873 67.72 79.533 116.07z" fill="#b1abb4"/><path d="m430.349 326.554c-18.305-23.517-50.227-44.958-81.926-48.691-35.728-4.207-64.092-32.161-67.417-67.981-.816-8.787-.541-15.529-.392-17.924-.044-.653-.087-1.29-.13-1.943l-35.885-180.981c-.354-1.786-2.772-2.101-3.584-.472-7.105 14.261-12.951 27.954-17.702 41.094l31.431 158.519c.044.653.086 1.29.13 1.943-.148 2.395-.423 9.137.393 17.924 3.325 35.821 31.69 63.774 67.417 67.981 31.699 3.733 63.621 25.175 81.926 48.691 31.235 40.128 39.961 110.584 4.214 148.899 1.44-.673 2.883-1.369 4.334-2.109 59.422-30.305 53.577-118.206 17.191-164.95z" fill="#a29aa5"/><g><circle cx="255.506" cy="225.197" r="7.5"/><path d="m173.566 307.686c-24.414.002-47.473 12.379-64.928 34.852-20.571 26.483-29.156 62.035-21.872 90.574 3.241 12.697 11.9 23.381 25.042 30.897 10.952 6.264 24.572 9.857 37.367 9.856 15.993-.001 32.876-7.495 46.318-20.562 14.906-14.49 24.667-34.446 28.224-57.71 2.145-14.021 3.898-32.228-1.631-48.699-6.225-18.545-27.682-39.208-48.52-39.208zm35.324 85.639c-6.51 42.568-35.626 65.539-59.716 65.54-19.562.001-42.989-10.325-47.874-29.463-6.181-24.217 1.349-54.702 19.184-77.663 14.552-18.733 33.404-29.051 53.083-29.053 11.129 0 28.91 12.927 34.298 28.981 4.477 13.339 3.03 28.544 1.025 41.658z"/><path d="m206.539 123.863c4.116.449 7.82-2.523 8.27-6.641 3.137-28.705 11.778-58.952 25.729-90.113l8.147 41.091c.006.027.01.054.016.082l16.716 84.306 8.05 57.18.072.817c1.763 18.977 10.185 36.892 23.714 50.445 13.395 13.419 31.253 22.042 50.281 24.28 31.334 3.685 61.199 25.684 76.898 45.853.689.885 1.365 1.786 2.031 2.702 1.468 2.02 3.754 3.092 6.073 3.092 1.528 0 3.071-.466 4.402-1.433 3.352-2.435 4.094-7.125 1.659-10.476-.764-1.052-1.541-2.086-2.331-3.1-21.499-27.621-55.642-47.849-86.981-51.535-15.689-1.845-30.398-8.941-41.418-19.98-5.549-5.559-10.046-12.014-13.334-19.021 30.219-67.094 24.597-143.182-16.76-226.195-1.797-3.606-5.693-5.667-9.681-5.131-3.987.536-7.191 3.547-7.972 7.49l-4.083 20.591-4.083-20.593c-.783-3.946-3.989-6.956-7.977-7.49-3.992-.536-7.882 1.529-9.676 5.134-18.992 38.121-30.567 75.256-34.405 110.375-.448 4.117 2.525 7.82 6.643 8.27zm65.003-96.76c29.226 65.227 34.783 125.443 16.627 179.501 0 0-7.971-56.591-7.998-56.728l-16.486-83.148z"/><path d="m453.163 350.944c-1.631-3.808-6.037-5.574-9.847-3.944-3.808 1.63-5.573 6.038-3.944 9.846 19.223 44.913 15.372 105.03-29.622 127.978-29.732 15.164-59.109 16.176-84.955 2.927-30.162-15.462-53.445-50.263-59.317-88.659-4.598-30.059-1.974-53.649 8.022-72.117 6.396-11.818 6.064-26.048-.858-37.13l-.163-.259c-1.83-2.889-4.477-6.34-7.829-10.71-16.061-20.938-49.481-64.506-51.141-131.652-.102-4.141-3.572-7.408-7.683-7.312-4.141.103-7.415 3.542-7.312 7.683.827 33.457 8.917 61.329 19.046 83.82-9.993 21.275-30.888 36.186-54.782 39-31.335 3.69-65.472 23.918-86.968 51.533-24.034 30.876-34.547 76.952-26.16 114.653 6.269 28.185 22.129 49.48 45.864 61.585 19.893 10.145 37.844 13.857 53.467 13.857 18.186 0 33.217-5.031 44.468-10.799 28.858-14.794 51.488-43.872 62.103-78.563 10.643 34.52 33.376 63.538 62.401 78.417 11.405 5.847 26.629 10.952 45.023 10.952 15.693 0 33.695-3.718 53.589-13.864 53.109-27.086 58.495-96.078 36.598-147.242zm-207.562 48.148c-5.904 38.6-29.061 73.458-58.995 88.804-25.532 13.088-54.674 12.025-84.278-3.072-24.785-12.64-34.364-34.972-38.036-51.48-7.469-33.577 1.917-74.641 23.355-102.183 15.695-20.164 45.556-42.16 76.885-45.85 25.192-2.967 47.659-17.055 61.119-37.688 7.191 13.104 14.682 23.854 20.972 32.305-2.968 3.873-5.345 7.01-7.046 9.695l-.135.215c-6.928 11.09-7.259 25.32-.863 37.135 9.47 17.5 11.767 41.09 7.022 72.119zm14.707-79.256c-1.602 2.959-3.026 6.028-4.306 9.189-1.249-3.188-2.646-6.261-4.232-9.191-3.831-7.078-3.68-15.527.397-22.055l.105-.167c.894-1.41 2.205-3.216 3.767-5.289 1.559 2.069 2.864 3.865 3.742 5.251l.133.21c4.074 6.522 4.225 14.972.394 22.052z"/><path d="m338.511 307.686c-20.837 0-42.294 20.663-48.519 39.208-5.528 16.471-3.775 34.677-1.632 48.699 7.775 50.838 44.209 78.271 74.543 78.272h.002c12.794 0 26.413-3.592 37.364-9.856 13.142-7.516 21.802-18.2 25.042-30.897 7.284-28.539-1.302-64.092-21.872-90.574-17.456-22.473-40.514-34.85-64.928-34.852zm72.267 121.716c-4.885 19.138-28.312 29.464-47.875 29.463-24.089-.001-53.205-22.972-59.715-65.54-2.006-13.115-3.452-28.32 1.024-41.658 5.389-16.053 23.169-28.981 34.297-28.981 19.68.002 38.531 10.319 53.083 29.053 17.837 22.961 25.367 53.445 19.186 77.663z"/></g></g></svg>